# xmcd CD database file
#
# Track frame offsets:
#	150
#	30239
#	52991
#	81998
#	114277
#	137385
#	151242
#	192330
#	221022
#	245451
#	265699
#
# Disc length: 3908 seconds
#
# Revision: 0
# Processed by: cddbd v1.5.2PL0 Copyright (c) Steve Scherf et al.
# Submitted via: CDex 1.51
#
DISCID=860f420b
DTITLE=Stephan Micus - Panagia
DYEAR=2013
DGENRE=New Age
TTITLE0=I Praise You, Unfading Rose
TTITLE1=You Are The Treasure Of Life
TTITLE2=I Praise You, Lady Of Passion
TTITLE3=You Are The Life-Giving Rain
TTITLE4=I Praise You, Sacred Mother
TTITLE5=You Are Like Fragrant Incense
TTITLE6=I Praise You, Sweet-Smelling Cypress
TTITLE7=You Are Full Of Grace
TTITLE8=I Praise You, Shelter Of The World
TTITLE9=You Are A Shining Spring
TTITLE10=I Praise You, Cloud Of Light
EXTD=YEAR: 2013
EXTT0=
EXTT1=
EXTT2=
EXTT3=
EXTT4=
EXTT5=
EXTT6=
EXTT7=
EXTT8=
EXTT9=
EXTT10=
PLAYORDER=
